<svg width="540" height="679" viewBox="0 0 540 679" fill="none" xmlns="http://www.w3.org/2000/svg">
<path d="M0 30C0 13.4314 13.4315 0 30 0H510C526.569 0 540 13.4315 540 30V649C540 665.569 526.569 679 510 679H30C13.4315 679 0 665.568 0 649L0 30Z" fill="url(#paint0_linear_248_531)"/>
<g clip-path="url(#clip0_248_531)">
<path d="M394.375 194.75C399.895 194.75 405.189 196.936 409.092 200.828C412.995 204.719 415.188 209.997 415.188 215.5V464.5C415.188 470.003 412.995 475.281 409.092 479.172C405.189 483.064 399.895 485.25 394.375 485.25H144.625C139.105 485.25 133.811 483.064 129.908 479.172C126.005 475.281 123.812 470.003 123.812 464.5V215.5C123.812 209.997 126.005 204.719 129.908 200.828C133.811 196.936 139.105 194.75 144.625 194.75H394.375ZM144.625 174C133.585 174 122.998 178.372 115.192 186.155C107.385 193.938 103 204.494 103 215.5L103 464.5C103 475.506 107.385 486.062 115.192 493.845C122.998 501.628 133.585 506 144.625 506H394.375C405.415 506 416.002 501.628 423.808 493.845C431.615 486.062 436 475.506 436 464.5V215.5C436 204.494 431.615 193.938 423.808 186.155C416.002 178.372 405.415 174 394.375 174H144.625Z" fill="#FE5E44" fill-opacity="0.3"/>
<path d="M245.649 270.404C246.618 271.368 247.387 272.513 247.911 273.774C248.436 275.034 248.706 276.385 248.706 277.75C248.706 279.115 248.436 280.466 247.911 281.726C247.387 282.987 246.618 284.132 245.649 285.095L190.558 340L245.649 394.904C247.603 396.853 248.701 399.495 248.701 402.25C248.701 405.005 247.603 407.647 245.649 409.595C243.695 411.544 241.045 412.638 238.281 412.638C235.518 412.638 232.868 411.544 230.914 409.595L168.476 347.345C167.507 346.382 166.738 345.237 166.214 343.976C165.689 342.716 165.419 341.365 165.419 340C165.419 338.635 165.689 337.284 166.214 336.024C166.738 334.763 167.507 333.618 168.476 332.654L230.914 270.404C231.88 269.438 233.029 268.672 234.293 268.149C235.557 267.626 236.912 267.356 238.281 267.356C239.65 267.356 241.005 267.626 242.27 268.149C243.534 268.672 244.682 269.438 245.649 270.404V270.404ZM293.351 270.404C292.382 271.368 291.613 272.513 291.089 273.774C290.564 275.034 290.294 276.385 290.294 277.75C290.294 279.115 290.564 280.466 291.089 281.726C291.613 282.987 292.382 284.132 293.351 285.095L348.442 340L293.351 394.904C291.397 396.853 290.299 399.495 290.299 402.25C290.299 405.005 291.397 407.647 293.351 409.595C295.305 411.544 297.955 412.638 300.719 412.638C303.482 412.638 306.132 411.544 308.086 409.595L370.524 347.345C371.493 346.382 372.262 345.237 372.786 343.976C373.311 342.716 373.581 341.365 373.581 340C373.581 338.635 373.311 337.284 372.786 336.024C372.262 334.763 371.493 333.618 370.524 332.654L308.086 270.404C307.12 269.438 305.971 268.672 304.707 268.149C303.443 267.626 302.088 267.356 300.719 267.356C299.35 267.356 297.995 267.626 296.73 268.149C295.466 268.672 294.318 269.438 293.351 270.404V270.404Z" fill="#FE5E44" fill-opacity="0.3"/>
</g>
<defs>
<linearGradient id="paint0_linear_248_531" x1="251.384" y1="376.424" x2="251.384" y2="711.44" gradientUnits="userSpaceOnUse">
<stop stop-color="#FFBFB5"/>
<stop offset="1" stop-color="#FF735C"/>
</linearGradient>
<clipPath id="clip0_248_531">
<rect x="103" y="174" width="333" height="332" fill="white"/>
</clipPath>
</defs>
</svg>
