<svg width="540" height="679" viewBox="0 0 540 679" fill="none" xmlns="http://www.w3.org/2000/svg">
<path d="M0 30C0 13.4314 13.4315 0 30 0H510C526.569 0 540 13.4315 540 30V649C540 665.569 526.569 679 510 679H30C13.4315 679 0 665.568 0 649L0 30Z" fill="url(#paint0_linear_248_531)"/>
<g clip-path="url(#clip0_248_531)">
<path d="M131.112 602.304H137.593L140.677 570.489H131.112V602.304Z" fill="#A0616A"/>
<path d="M128.997 596.654L139.35 595.868V601.514L149.194 610.166C149.68 610.594 150.046 611.208 150.239 611.918C150.431 612.629 150.44 613.4 150.265 614.118C150.089 614.836 149.737 615.464 149.261 615.909C148.785 616.355 148.21 616.595 147.619 616.595H135.293L133.169 611.01L132.339 616.595H127.692L128.997 596.654Z" fill="#2F2E41"/>
<path d="M182.943 602.304H189.423L192.508 570.489H182.943V602.304Z" fill="#A0616A"/>
<path d="M180.828 596.654L191.181 595.868V601.514L201.024 610.166C201.511 610.594 201.877 611.208 202.07 611.918C202.262 612.629 202.271 613.4 202.095 614.118C201.92 614.836 201.568 615.464 201.092 615.909C200.616 616.355 200.041 616.595 199.45 616.595H187.124L184.999 611.01L184.17 616.595H179.522L180.828 596.654Z" fill="#2F2E41"/>
<path d="M136.242 407.987L170.697 409.086V361.69L142.395 361.868L136.242 407.987Z" fill="#A0616A"/>
<path d="M170.872 373.863L175.478 393.394L185.039 419.014L205.236 566.992L202.148 587.462L172.207 585.86L158.872 458.984L158.657 476.499L158.554 484.977C158.554 484.977 163.417 540.119 157.748 550.821C152.078 561.522 157.632 560.263 157.632 560.263L157.362 582.338L121.886 582.658L129.712 519.104C129.712 519.104 133.686 515.11 131.56 511.095C129.434 507.081 133.621 502.164 133.621 502.164L131.743 452.549C131.743 452.549 133.822 443.979 131.376 442.865C128.931 441.751 131.055 434.381 131.055 434.381L130.692 424.778L138.74 386.045L170.872 373.863Z" fill="#2F2E41"/>
<path d="M137.485 361.69L133.963 348.24L131.447 343.756L130.44 330.947C130.44 296.36 136.501 302.12 136.501 302.12L144.408 289.956L153.402 289.598L160.51 289.315L166.42 301.805L174.974 305.647L178.324 327.802L172.207 351.442L172.477 349.686C175.356 356.452 174.624 357.47 172.239 362.551L172.121 364.385C171.84 368.723 174.215 369.47 170.872 370.382C142.158 378.213 139.423 393.876 136.005 387.785C135.244 386.429 138.474 370.242 137.372 370.382C134.354 370.766 137.485 361.69 137.485 361.69Z" fill="#FE5E44" fill-opacity="0.3"/>
<path d="M155.082 285.016C163.326 285.016 170.01 276.509 170.01 266.015C170.01 255.522 163.326 247.015 155.082 247.015C146.838 247.015 140.154 255.522 140.154 266.015C140.154 276.509 146.838 285.016 155.082 285.016Z" fill="#A0616A"/>
<path d="M123.594 401.576L125.122 334.643L135.079 340.187L130.115 401.332C130.895 402.148 131.461 403.248 131.737 404.485C132.013 405.721 131.986 407.036 131.659 408.252C131.332 409.469 130.722 410.529 129.909 411.292C129.096 412.055 128.12 412.484 127.11 412.522C126.1 412.56 125.106 412.205 124.259 411.504C123.412 410.803 122.754 409.79 122.372 408.6C121.989 407.41 121.902 406.1 122.12 404.845C122.338 403.589 122.852 402.449 123.594 401.576V401.576Z" fill="#A0616A"/>
<path d="M136.323 301.774L135.165 302.239C132.072 303.483 129.37 305.949 127.452 309.279C125.534 312.61 124.5 316.632 124.5 320.761L122.322 333.455C125.477 340.345 130.141 343.759 136.634 342.959L136.323 301.774Z" fill="#FE5E44" fill-opacity="0.3"/>
<path d="M204.382 324.876C204.382 323.939 204.218 323.012 203.902 322.165C203.586 321.318 203.125 320.571 202.554 319.979C201.982 319.387 201.314 318.965 200.599 318.743C199.883 318.521 199.137 318.505 198.415 318.696C197.694 318.887 197.015 319.28 196.428 319.847C195.841 320.414 195.361 321.14 195.022 321.973C194.684 322.806 194.495 323.725 194.47 324.662C194.446 325.599 194.586 326.532 194.88 327.392L185.117 346.972V335.228L174.104 336.743L175.646 357.673C175.769 359.348 176.31 360.929 177.188 362.187C178.067 363.444 179.238 364.311 180.531 364.662C181.824 365.013 183.171 364.83 184.377 364.138C185.582 363.447 186.582 362.284 187.232 360.818L200.428 331.056C201.545 330.762 202.548 329.987 203.268 328.861C203.989 327.735 204.382 326.328 204.382 324.876V324.876Z" fill="#A0616A"/>
<path d="M173.211 304.921L174.319 305.366C177.279 306.555 179.863 308.915 181.698 312.101C183.533 315.287 184.522 319.135 184.522 323.085L186.605 335.228C183.587 341.819 179.125 345.085 172.914 344.32L173.211 304.921Z" fill="#FE5E44" fill-opacity="0.3"/>
<path d="M135.921 270.259C136.755 266.22 137.068 261.993 138.273 258.108C139.469 254.252 141.494 250.902 144.118 248.444C146.741 245.985 149.856 244.518 153.104 244.211C156.353 243.903 159.604 244.767 162.484 246.704C165.365 248.64 167.758 251.571 169.389 255.16C170.819 258.073 171.421 261.52 171.097 264.929C170.622 268.637 168.692 272.163 169.296 275.84C169.7 278.301 171.16 280.212 172.32 282.247C173.479 284.282 174.394 286.973 173.559 289.251C172.652 291.724 170.132 292.455 167.995 292.223C165.858 291.991 163.718 291.113 161.608 291.606L162.613 286.595C160.112 289.658 157.612 292.722 155.111 295.785C155.388 292.597 154.225 289.538 153.422 286.497C152.619 283.457 152.245 279.793 153.835 277.304C154.786 275.816 156.252 275.064 157.56 274.111C158.868 273.158 160.165 271.731 160.299 269.821C160.464 267.458 158.8 265.562 157.167 264.42C155.534 263.278 153.653 262.32 152.736 260.255C153.394 262.053 154.052 263.85 154.71 265.648C152.522 265.451 150.413 264.523 148.597 262.958C146.781 261.392 145.321 259.245 144.365 256.732L143.463 257.483C135.967 268.183 145.567 284.214 139.939 289.824C142.411 284.215 134.638 276.479 135.921 270.259Z" fill="#2F2E41"/>
<path d="M194.222 119.944L331.179 69.5139C352.136 61.7969 374.203 77.1478 380.326 104.087L470.866 502.424C476.989 529.363 464.771 557.339 443.814 565.055L306.857 615.486C285.899 623.203 263.833 607.852 257.71 580.913L167.17 182.576C161.046 155.637 173.265 127.661 194.222 119.944Z" fill="#262B58" stroke="black"/>
<path d="M332.113 73.6237L314.203 80.2186L315.993 88.0937C316.803 91.6582 316.468 95.4864 315.06 98.7361C313.653 101.986 311.289 104.391 308.488 105.422L228.471 134.886C225.67 135.918 222.662 135.491 220.109 133.699C217.556 131.908 215.667 128.899 214.856 125.335L213.066 117.459L195.156 124.054C185.891 127.48 178.073 135.444 173.415 146.198C168.758 156.953 167.642 169.619 170.313 181.419L260.853 579.755C263.544 591.548 269.801 601.499 278.25 607.427C286.7 613.356 296.652 614.776 305.923 611.376L442.879 560.946C452.144 557.52 459.963 549.556 464.621 538.802C469.278 528.048 470.394 515.381 467.723 503.581L377.183 105.245C374.491 93.4526 368.234 83.5008 359.785 77.5727C351.336 71.6447 341.384 70.2245 332.113 73.6237V73.6237Z" fill="#262B58"/>
<path d="M177.452 234.746C176.755 235.001 176.007 234.895 175.372 234.449C174.737 234.004 174.267 233.256 174.065 232.37L172.545 225.683C172.445 225.243 172.414 224.784 172.454 224.329C172.494 223.875 172.603 223.435 172.777 223.035C172.95 222.635 173.184 222.282 173.464 221.996C173.745 221.711 174.067 221.499 174.412 221.372C174.757 221.245 175.118 221.205 175.475 221.256C175.832 221.307 176.177 221.446 176.492 221.667C176.806 221.888 177.084 222.185 177.308 222.542C177.532 222.899 177.699 223.309 177.799 223.748L179.319 230.435C179.519 231.322 179.435 232.274 179.085 233.082C178.735 233.89 178.148 234.488 177.452 234.746V234.746Z" fill="#3F3D56"/>
<path d="M185.245 269.035C184.549 269.291 183.801 269.184 183.166 268.738C182.531 268.293 182.061 267.545 181.858 266.659L177.674 248.252C177.575 247.812 177.544 247.353 177.584 246.898C177.623 246.444 177.733 246.004 177.907 245.604C178.08 245.204 178.314 244.851 178.594 244.565C178.875 244.28 179.196 244.068 179.541 243.941C179.886 243.814 180.248 243.774 180.605 243.825C180.962 243.876 181.307 244.015 181.622 244.236C181.936 244.457 182.213 244.754 182.438 245.111C182.662 245.468 182.829 245.878 182.928 246.317L187.112 264.724C187.313 265.611 187.229 266.563 186.879 267.371C186.529 268.179 185.942 268.778 185.245 269.035V269.035Z" fill="#3F3D56"/>
<path d="M191.511 296.602C190.814 296.857 190.067 296.75 189.432 296.305C188.797 295.859 188.326 295.111 188.124 294.225L183.94 275.818C183.739 274.931 183.822 273.979 184.172 273.17C184.522 272.362 185.11 271.764 185.807 271.507C186.504 271.25 187.252 271.357 187.887 271.802C188.522 272.248 188.993 272.996 189.194 273.883L193.378 292.291C193.579 293.177 193.495 294.129 193.145 294.937C192.795 295.746 192.207 296.344 191.511 296.602V296.602Z" fill="#3F3D56"/>
<path d="M403.499 202.238C402.803 202.493 402.055 202.386 401.42 201.941C400.785 201.495 400.315 200.747 400.112 199.861L389.903 154.946C389.702 154.059 389.785 153.107 390.135 152.299C390.485 151.49 391.074 150.892 391.77 150.635C392.467 150.379 393.215 150.485 393.85 150.931C394.486 151.376 394.956 152.125 395.157 153.012L405.366 197.927C405.567 198.813 405.483 199.765 405.133 200.573C404.783 201.382 404.195 201.98 403.499 202.238Z" fill="#3F3D56"/>
<path d="M229.328 226.702C229.086 226.791 228.826 226.763 228.598 226.623L215.332 218.489C215.211 218.415 215.102 218.311 215.013 218.183C214.923 218.055 214.854 217.906 214.81 217.744C214.765 217.583 214.746 217.411 214.754 217.24C214.761 217.069 214.795 216.901 214.854 216.747L221.244 199.862C221.303 199.708 221.385 199.569 221.485 199.455C221.585 199.341 221.703 199.253 221.83 199.197C221.957 199.14 222.091 199.116 222.226 199.125C222.36 199.135 222.492 199.178 222.613 199.253C222.735 199.327 222.843 199.431 222.933 199.559C223.023 199.687 223.092 199.836 223.136 199.998C223.181 200.16 223.2 200.331 223.192 200.502C223.185 200.673 223.151 200.841 223.092 200.995L217.147 216.704L229.489 224.272C229.676 224.386 229.831 224.571 229.934 224.8C230.037 225.03 230.083 225.294 230.065 225.557C230.048 225.82 229.968 226.071 229.837 226.275C229.705 226.479 229.528 226.628 229.328 226.702V226.702Z" fill="#6C63FF"/>
<path d="M236.869 223.889C236.666 223.964 236.45 223.957 236.251 223.87C236.052 223.783 235.878 223.62 235.754 223.404C235.63 223.187 235.561 222.926 235.558 222.658C235.554 222.39 235.615 222.127 235.734 221.904L243.406 207.459L232.057 197.693C231.946 197.597 231.85 197.474 231.775 197.331C231.701 197.188 231.649 197.027 231.623 196.859C231.598 196.69 231.598 196.517 231.625 196.349C231.652 196.181 231.705 196.021 231.781 195.879C231.856 195.737 231.953 195.615 232.066 195.52C232.178 195.426 232.304 195.361 232.437 195.328C232.569 195.296 232.705 195.297 232.837 195.332C232.969 195.366 233.095 195.434 233.206 195.53L245.405 206.028C245.516 206.124 245.612 206.247 245.686 206.39C245.761 206.533 245.812 206.693 245.837 206.862C245.863 207.03 245.862 207.203 245.835 207.371C245.808 207.539 245.755 207.698 245.68 207.84L237.432 223.367C237.298 223.62 237.099 223.805 236.869 223.889Z" fill="#6C63FF"/>
<path d="M371.216 192.837L214.728 250.46C212.314 251.345 209.723 250.975 207.524 249.432C205.324 247.888 203.695 245.297 202.994 242.227L194.2 203.54C193.505 200.467 193.795 197.17 195.008 194.37C196.221 191.57 198.256 189.496 200.669 188.604L357.157 130.982C359.57 130.097 362.162 130.467 364.361 132.01C366.561 133.553 368.19 136.144 368.891 139.215L377.685 177.902C378.38 180.974 378.089 184.272 376.877 187.072C375.664 189.872 373.628 191.945 371.216 192.837ZM201.049 190.276C198.985 191.039 197.243 192.813 196.205 195.209C195.167 197.605 194.919 200.427 195.514 203.056L204.307 241.743C204.907 244.371 206.301 246.588 208.183 247.908C210.066 249.229 212.283 249.545 214.348 248.788L370.836 191.166C372.9 190.402 374.642 188.628 375.68 186.232C376.718 183.836 376.966 181.015 376.371 178.386L367.578 139.698C366.978 137.071 365.584 134.854 363.702 133.533C361.819 132.213 359.602 131.896 357.537 132.654L201.049 190.276Z" fill="#3F3D56"/>
<path d="M289.776 182.968L263.507 192.641C262.81 192.898 262.062 192.792 261.426 192.346C260.791 191.9 260.321 191.152 260.12 190.265C259.918 189.378 260.002 188.426 260.352 187.617C260.702 186.809 261.29 186.211 261.987 185.954L288.256 176.281C288.953 176.025 289.701 176.131 290.336 176.577C290.971 177.022 291.441 177.771 291.643 178.658C291.844 179.544 291.761 180.497 291.411 181.305C291.061 182.114 290.473 182.712 289.776 182.968V182.968Z" fill="#E6E6E6"/>
<path d="M350.435 180.561L267.03 211.273C266.333 211.529 265.585 211.423 264.95 210.977C264.314 210.532 263.844 209.783 263.643 208.896C263.441 208.01 263.525 207.057 263.875 206.249C264.225 205.44 264.813 204.842 265.51 204.586L348.915 173.874C349.611 173.617 350.36 173.724 350.995 174.169C351.63 174.615 352.1 175.363 352.302 176.25C352.503 177.137 352.42 178.089 352.07 178.898C351.719 179.706 351.131 180.304 350.435 180.561V180.561Z" fill="#E6E6E6"/>
<path d="M288.643 491.219C288.401 491.308 288.141 491.281 287.914 491.141L274.648 483.007C274.526 482.932 274.418 482.828 274.328 482.7C274.238 482.572 274.169 482.423 274.125 482.262C274.08 482.1 274.061 481.928 274.069 481.757C274.077 481.586 274.111 481.419 274.169 481.264L280.56 464.379C280.678 464.067 280.888 463.828 281.145 463.714C281.402 463.6 281.684 463.62 281.929 463.77C282.174 463.92 282.362 464.188 282.452 464.515C282.541 464.842 282.526 465.201 282.408 465.512L276.462 481.221L288.804 488.789C288.991 488.904 289.146 489.088 289.249 489.317C289.352 489.547 289.398 489.811 289.381 490.074C289.363 490.337 289.284 490.588 289.152 490.792C289.02 490.997 288.843 491.145 288.643 491.219Z" fill="#6C63FF"/>
<path d="M296.184 488.407C295.981 488.482 295.766 488.475 295.566 488.388C295.367 488.301 295.193 488.138 295.069 487.921C294.945 487.704 294.877 487.444 294.873 487.176C294.869 486.908 294.931 486.645 295.049 486.422L302.722 471.976L291.373 462.21C291.148 462.015 290.993 461.716 290.941 461.376C290.89 461.036 290.947 460.685 291.099 460.398C291.251 460.112 291.486 459.914 291.753 459.848C292.02 459.782 292.296 459.854 292.522 460.047L304.72 470.545C304.946 470.739 305.101 471.039 305.153 471.379C305.204 471.719 305.148 472.071 304.996 472.357L296.748 487.884C296.614 488.137 296.414 488.322 296.184 488.407V488.407Z" fill="#6C63FF"/>
<path d="M443.034 508.803L286.546 566.425C284.132 567.31 281.541 566.94 279.341 565.397C277.141 563.854 275.512 561.263 274.811 558.192L252.148 458.485C251.453 455.413 251.743 452.115 252.956 449.315C254.169 446.515 256.204 444.442 258.617 443.55L415.105 385.927C417.519 385.042 420.11 385.412 422.309 386.955C424.509 388.499 426.138 391.09 426.839 394.16L449.502 493.867C450.197 496.94 449.907 500.237 448.694 503.037C447.482 505.837 445.446 507.911 443.034 508.803V508.803ZM258.997 445.221C256.933 445.985 255.191 447.759 254.153 450.155C253.115 452.551 252.867 455.373 253.462 458.001L276.125 557.709C276.725 560.336 278.118 562.553 280.001 563.874C281.883 565.194 284.1 565.511 286.166 564.753L442.654 507.131C444.718 506.368 446.46 504.593 447.497 502.198C448.535 499.802 448.784 496.98 448.189 494.351L425.526 394.644C424.926 392.017 423.532 389.799 421.65 388.479C419.767 387.158 417.55 386.842 415.485 387.599L258.997 445.221Z" fill="#3F3D56"/>
<path d="M349.091 447.486L322.822 457.159C322.477 457.286 322.115 457.326 321.758 457.276C321.401 457.226 321.055 457.086 320.74 456.866C320.425 456.645 320.147 456.348 319.923 455.991C319.698 455.633 319.531 455.223 319.431 454.784C319.331 454.344 319.301 453.884 319.34 453.429C319.38 452.975 319.49 452.534 319.664 452.134C319.838 451.733 320.072 451.381 320.353 451.095C320.634 450.81 320.957 450.598 321.302 450.472L347.571 440.799C348.268 440.544 349.015 440.651 349.649 441.096C350.284 441.542 350.753 442.29 350.954 443.176C351.156 444.062 351.073 445.014 350.723 445.822C350.374 446.63 349.787 447.228 349.091 447.486Z" fill="#E6E6E6"/>
<path d="M409.75 445.078L326.345 475.79C326 475.918 325.638 475.957 325.281 475.907C324.924 475.857 324.578 475.717 324.263 475.497C323.948 475.276 323.671 474.979 323.446 474.621C323.222 474.264 323.055 473.854 322.955 473.415C322.855 472.975 322.824 472.515 322.864 472.061C322.904 471.606 323.014 471.166 323.188 470.765C323.362 470.365 323.596 470.012 323.877 469.727C324.157 469.441 324.48 469.229 324.825 469.103L408.23 438.391C408.927 438.135 409.675 438.241 410.31 438.687C410.945 439.132 411.415 439.881 411.617 440.767C411.819 441.654 411.735 442.607 411.385 443.415C411.035 444.223 410.447 444.822 409.75 445.078V445.078Z" fill="#E6E6E6"/>
<path d="M227.266 300.318L219.601 303.14C218.556 303.525 217.954 304.914 218.256 306.244L218.895 309.055C219.197 310.384 220.289 311.15 221.334 310.766L228.999 307.943C230.044 307.559 230.645 306.169 230.343 304.839L229.704 302.029C229.402 300.699 228.31 299.933 227.266 300.318Z" fill="#E6E6E6"/>
<path d="M289.674 277.337L282.009 280.16C280.965 280.545 280.363 281.934 280.665 283.264L281.304 286.075C281.606 287.404 282.698 288.17 283.742 287.785L291.408 284.963C292.452 284.578 293.054 283.189 292.752 281.859L292.113 279.048C291.811 277.719 290.719 276.953 289.674 277.337Z" fill="#6C63FF"/>
<path d="M307.357 270.826L299.692 273.649C298.647 274.034 298.045 275.423 298.347 276.753L298.986 279.564C299.288 280.893 300.38 281.659 301.425 281.274L309.09 278.452C310.135 278.067 310.736 276.678 310.434 275.348L309.795 272.537C309.493 271.208 308.401 270.442 307.357 270.826Z" fill="#E6E6E6"/>
<path d="M272.554 282.952L236.431 296.254C235.387 296.638 234.785 298.028 235.087 299.358L235.726 302.168C236.028 303.498 237.12 304.264 238.165 303.879L274.288 290.578C275.332 290.193 275.934 288.804 275.632 287.474L274.993 284.663C274.691 283.334 273.599 282.568 272.554 282.952Z" fill="#E6E6E6"/>
<path d="M355.766 252.312L319.643 265.613C318.598 265.998 317.996 267.388 318.299 268.717L318.938 271.528C319.24 272.858 320.331 273.624 321.376 273.239L357.499 259.938C358.544 259.553 359.146 258.163 358.843 256.834L358.204 254.023C357.902 252.694 356.81 251.928 355.766 252.312Z" fill="#F2F2F2"/>
<path d="M231.402 317.446L223.736 320.268C222.692 320.653 222.09 322.043 222.392 323.372L223.031 326.183C223.333 327.512 224.425 328.278 225.47 327.894L233.135 325.071C234.179 324.687 234.781 323.297 234.479 321.968L233.84 319.157C233.538 317.827 232.446 317.061 231.402 317.446Z" fill="#E6E6E6"/>
<path d="M293.81 294.466L286.145 297.288C285.1 297.673 284.499 299.062 284.801 300.392L285.44 303.203C285.742 304.532 286.834 305.298 287.878 304.914L295.543 302.091C296.588 301.706 297.19 300.317 296.888 298.987L296.249 296.176C295.947 294.847 294.855 294.081 293.81 294.466Z" fill="#6C63FF"/>
<path d="M311.493 287.954L303.827 290.777C302.783 291.162 302.181 292.551 302.483 293.881L303.122 296.692C303.424 298.021 304.516 298.787 305.561 298.402L313.226 295.58C314.27 295.195 314.872 293.806 314.57 292.476L313.931 289.665C313.629 288.336 312.537 287.57 311.493 287.954Z" fill="#E6E6E6"/>
<path d="M276.69 300.081L240.567 313.382C239.523 313.767 238.921 315.156 239.223 316.486L239.862 319.297C240.164 320.626 241.256 321.392 242.301 321.007L278.424 307.706C279.468 307.321 280.07 305.932 279.768 304.602L279.129 301.791C278.827 300.462 277.735 299.696 276.69 300.081Z" fill="#E6E6E6"/>
<path d="M359.904 269.438L323.781 282.739C322.736 283.124 322.134 284.514 322.436 285.843L323.075 288.654C323.378 289.984 324.469 290.75 325.514 290.365L361.637 277.063C362.682 276.679 363.283 275.289 362.981 273.96L362.342 271.149C362.04 269.819 360.948 269.053 359.904 269.438Z" fill="#F2F2F2"/>
<path d="M268.374 322.483L260.709 325.305C259.664 325.69 259.063 327.08 259.365 328.409L260.004 331.22C260.306 332.549 261.398 333.315 262.442 332.931L270.107 330.108C271.152 329.724 271.754 328.334 271.452 327.005L270.813 324.194C270.51 322.864 269.419 322.098 268.374 322.483Z" fill="#E6E6E6"/>
<path d="M330.783 299.503L323.118 302.325C322.073 302.71 321.471 304.099 321.773 305.429L322.412 308.24C322.714 309.569 323.806 310.335 324.851 309.951L332.516 307.128C333.561 306.743 334.162 305.354 333.86 304.024L333.221 301.213C332.919 299.884 331.827 299.118 330.783 299.503Z" fill="#6C63FF"/>
<path d="M348.465 292.991L340.8 295.814C339.755 296.199 339.154 297.588 339.456 298.918L340.095 301.729C340.397 303.058 341.489 303.824 342.533 303.439L350.198 300.617C351.243 300.232 351.845 298.843 351.543 297.513L350.904 294.702C350.601 293.373 349.51 292.607 348.465 292.991Z" fill="#E6E6E6"/>
<path d="M313.663 305.117L277.54 318.419C276.495 318.803 275.893 320.193 276.196 321.523L276.834 324.333C277.137 325.663 278.228 326.429 279.273 326.044L315.396 312.743C316.441 312.358 317.042 310.969 316.74 309.639L316.101 306.828C315.799 305.499 314.707 304.733 313.663 305.117Z" fill="#E6E6E6"/>
<path d="M396.876 274.475L360.753 287.776C359.709 288.161 359.107 289.55 359.409 290.88L360.048 293.691C360.35 295.02 361.442 295.786 362.486 295.402L398.61 282.1C399.654 281.716 400.256 280.326 399.954 278.996L399.315 276.186C399.013 274.856 397.921 274.09 396.876 274.475Z" fill="#F2F2F2"/>
<path d="M246.574 385.175L238.909 387.997C237.864 388.382 237.262 389.771 237.565 391.101L238.203 393.912C238.506 395.241 239.597 396.007 240.642 395.623L248.307 392.8C249.352 392.416 249.954 391.026 249.651 389.696L249.012 386.886C248.71 385.556 247.619 384.79 246.574 385.175Z" fill="#6C63FF"/>
<path d="M264.256 378.663L256.591 381.486C255.547 381.871 254.945 383.26 255.247 384.59L255.886 387.401C256.188 388.73 257.28 389.496 258.324 389.111L265.99 386.289C267.034 385.904 267.636 384.515 267.334 383.185L266.695 380.374C266.393 379.045 265.301 378.279 264.256 378.663Z" fill="#E6E6E6"/>
<path d="M312.955 361.421L276.831 374.722C275.787 375.107 275.185 376.496 275.487 377.826L276.126 380.637C276.428 381.966 277.52 382.732 278.565 382.348L314.688 369.046C315.732 368.662 316.334 367.272 316.032 365.942L315.393 363.132C315.091 361.802 313.999 361.036 312.955 361.421Z" fill="#F2F2F2"/>
<path d="M288.201 351.196L280.535 354.018C279.491 354.403 278.889 355.792 279.191 357.122L279.83 359.933C280.132 361.262 281.224 362.028 282.269 361.644L289.934 358.821C290.978 358.437 291.58 357.047 291.278 355.717L290.639 352.907C290.337 351.577 289.245 350.811 288.201 351.196Z" fill="#6C63FF"/>
<path d="M305.885 344.683L298.22 347.505C297.175 347.89 296.574 349.279 296.876 350.609L297.515 353.42C297.817 354.749 298.909 355.515 299.953 355.131L307.618 352.308C308.663 351.924 309.265 350.534 308.963 349.204L308.324 346.394C308.021 345.064 306.93 344.298 305.885 344.683Z" fill="#6C63FF"/>
<path d="M271.37 358.082L235.247 371.383C234.202 371.768 233.6 373.158 233.902 374.487L234.541 377.298C234.844 378.628 235.935 379.394 236.98 379.009L273.103 365.708C274.148 365.323 274.749 363.933 274.447 362.604L273.808 359.793C273.506 358.463 272.414 357.697 271.37 358.082Z" fill="#E6E6E6"/>
<path d="M354.583 327.439L318.46 340.741C317.416 341.126 316.814 342.515 317.116 343.845L317.755 346.656C318.057 347.985 319.149 348.751 320.193 348.367L356.317 335.065C357.361 334.68 357.963 333.291 357.661 331.961L357.022 329.15C356.72 327.821 355.628 327.055 354.583 327.439Z" fill="#F2F2F2"/>
<path d="M272.016 338.504L264.351 341.327C263.306 341.711 262.704 343.101 263.006 344.431L263.645 347.241C263.947 348.571 265.039 349.337 266.084 348.952L273.749 346.13C274.794 345.745 275.395 344.356 275.093 343.026L274.454 340.215C274.152 338.886 273.06 338.12 272.016 338.504Z" fill="#E6E6E6"/>
<path d="M334.424 315.524L326.759 318.347C325.715 318.731 325.113 320.121 325.415 321.45L326.054 324.261C326.356 325.591 327.448 326.357 328.492 325.972L336.158 323.15C337.202 322.765 337.804 321.375 337.502 320.046L336.863 317.235C336.561 315.905 335.469 315.139 334.424 315.524Z" fill="#6C63FF"/>
<path d="M352.107 309.013L344.442 311.835C343.397 312.22 342.795 313.61 343.097 314.939L343.736 317.75C344.038 319.08 345.13 319.846 346.175 319.461L353.84 316.638C354.885 316.254 355.486 314.864 355.184 313.535L354.545 310.724C354.243 309.394 353.151 308.628 352.107 309.013Z" fill="#E6E6E6"/>
<path d="M317.593 322.41L281.47 335.712C280.426 336.096 279.824 337.486 280.126 338.816L280.765 341.626C281.067 342.956 282.159 343.722 283.204 343.337L319.327 330.036C320.371 329.651 320.973 328.262 320.671 326.932L320.032 324.121C319.73 322.792 318.638 322.026 317.593 322.41Z" fill="#E6E6E6"/>
<path d="M400.805 291.77L364.682 305.071C363.637 305.456 363.035 306.846 363.338 308.175L363.977 310.986C364.279 312.316 365.37 313.082 366.415 312.697L402.538 299.396C403.583 299.011 404.185 297.621 403.882 296.292L403.243 293.481C402.941 292.151 401.849 291.385 400.805 291.77Z" fill="#F2F2F2"/>
<path d="M253.252 352.968C254.951 352.968 256.328 351.215 256.328 349.052C256.328 346.89 254.951 345.137 253.252 345.137C251.553 345.137 250.175 346.89 250.175 349.052C250.175 351.215 251.553 352.968 253.252 352.968Z" fill="#6C63FF"/>
<path d="M249.642 337.086C251.341 337.086 252.718 335.333 252.718 333.171C252.718 331.008 251.341 329.255 249.642 329.255C247.943 329.255 246.565 331.008 246.565 333.171C246.565 335.333 247.943 337.086 249.642 337.086Z" fill="#6C63FF"/>
<path d="M271.718 107.499L251.36 114.995C250.925 115.153 250.459 115.085 250.063 114.806C249.668 114.527 249.375 114.06 249.249 113.508C249.124 112.955 249.175 112.361 249.393 111.857C249.61 111.352 249.976 110.978 250.41 110.816L270.768 103.319C270.984 103.239 271.211 103.213 271.434 103.244C271.658 103.275 271.875 103.362 272.072 103.499C272.269 103.637 272.443 103.823 272.584 104.047C272.725 104.27 272.829 104.527 272.892 104.802C272.954 105.077 272.973 105.365 272.948 105.65C272.923 105.935 272.854 106.21 272.745 106.461C272.636 106.711 272.489 106.932 272.313 107.11C272.137 107.288 271.935 107.42 271.718 107.499V107.499Z" fill="#72797F"/>
<path d="M281.751 103.28C282.506 103.28 283.118 102.501 283.118 101.54C283.118 100.579 282.506 99.7996 281.751 99.7996C280.996 99.7996 280.384 100.579 280.384 101.54C280.384 102.501 280.996 103.28 281.751 103.28Z" fill="#72797F"/>
<path d="M78.5007 616.821C78.3143 616.165 78.1851 615.484 78.1155 614.792C78.1078 614.742 78.1048 614.691 78.1065 614.639C77.7583 610.426 79.4671 606.52 81.4033 602.556L84.0578 597.127C84.305 596.622 84.6652 596.221 85.0922 595.978C85.5192 595.734 85.9936 595.658 86.4548 595.759C86.9159 595.861 87.3428 596.135 87.6807 596.547C88.0186 596.959 88.2523 597.49 88.3517 598.072C88.4959 598.915 88.6401 599.77 88.778 600.622C90.2071 599.109 91.6993 597.709 93.0058 596.499C96.4562 593.312 99.9056 590.122 103.354 586.928C103.732 586.577 104.184 586.378 104.651 586.357C105.118 586.335 105.58 586.491 105.977 586.805C106.375 587.119 106.689 587.577 106.881 588.12C107.072 588.663 107.132 589.267 107.053 589.853L106.396 594.697C105.525 601.123 104.537 608.406 102.2 614.775C101.938 615.504 101.658 616.213 101.368 616.883L101.27 617.108H78.5822L78.5007 616.821Z" fill="#FE5E44" fill-opacity="0.5"/>
<path d="M55.8096 617.733L477.19 618C477.405 617.998 477.611 617.889 477.763 617.694C477.914 617.5 477.999 617.238 477.999 616.964C477.999 616.69 477.914 616.427 477.763 616.233C477.611 616.039 477.405 615.929 477.19 615.928L55.8096 615.66C55.5944 615.662 55.3884 615.772 55.2366 615.966C55.0848 616.16 54.9997 616.423 54.9997 616.696C54.9997 616.97 55.0848 617.233 55.2366 617.427C55.3884 617.621 55.5944 617.731 55.8096 617.733Z" fill="#FE5E44" fill-opacity="0.4"/>
<path d="M346.501 519.875C344.282 520.692 341.924 520.653 339.723 519.764C337.522 518.874 335.577 517.174 334.135 514.878C332.693 512.582 331.819 509.794 331.622 506.865C331.426 503.936 331.916 500.999 333.031 498.425C334.145 495.851 335.835 493.756 337.885 492.404C339.936 491.052 342.255 490.504 344.55 490.83C346.845 491.156 349.013 492.34 350.779 494.234C352.545 496.128 353.83 498.646 354.472 501.469C355.332 505.256 354.976 509.322 353.481 512.774C351.986 516.225 349.475 518.78 346.501 519.875V519.875Z" fill="#E6E6E6"/>
<path d="M347.361 502.562L344.042 503.784L343.082 499.559C343.04 499.374 342.97 499.202 342.875 499.051C342.781 498.901 342.664 498.776 342.532 498.683C342.264 498.495 341.949 498.45 341.655 498.558C341.362 498.666 341.114 498.918 340.967 499.259C340.819 499.599 340.784 500 340.869 500.374L341.829 504.599L338.51 505.821C338.217 505.929 337.97 506.181 337.823 506.522C337.676 506.862 337.641 507.263 337.726 507.636C337.81 508.009 338.008 508.324 338.275 508.512C338.542 508.699 338.857 508.744 339.15 508.637L342.47 507.415L343.43 511.64C343.472 511.825 343.542 511.997 343.636 512.147C343.731 512.298 343.848 512.423 343.98 512.516C344.113 512.609 344.258 512.668 344.409 512.689C344.559 512.71 344.711 512.694 344.856 512.64C345.002 512.587 345.137 512.497 345.255 512.377C345.373 512.257 345.472 512.108 345.545 511.94C345.618 511.771 345.664 511.586 345.681 511.395C345.698 511.203 345.685 511.01 345.643 510.825L344.682 506.6L348.002 505.378C348.295 505.269 348.542 505.017 348.689 504.677C348.836 504.337 348.871 503.936 348.786 503.563C348.701 503.19 348.504 502.875 348.236 502.687C347.969 502.499 347.655 502.454 347.361 502.562V502.562Z" fill="white"/>
<path d="M379.315 507.792C377.097 508.609 374.738 508.57 372.537 507.68C370.336 506.791 368.392 505.091 366.95 502.795C365.508 500.499 364.634 497.71 364.437 494.782C364.24 491.853 364.73 488.916 365.845 486.342C366.96 483.768 368.649 481.672 370.7 480.32C372.75 478.968 375.07 478.421 377.365 478.747C379.66 479.072 381.828 480.257 383.594 482.151C385.36 484.045 386.645 486.563 387.287 489.386C388.147 493.172 387.791 497.239 386.296 500.69C384.801 504.142 382.29 506.697 379.315 507.792Z" fill="#E6E6E6"/>
<path d="M380.176 490.479L376.857 491.701L374.644 492.516L371.325 493.738C371.032 493.846 370.784 494.098 370.636 494.438C370.489 494.779 370.454 495.18 370.539 495.553C370.624 495.927 370.821 496.242 371.089 496.43C371.357 496.618 371.672 496.662 371.965 496.554L375.284 495.332L377.497 494.517L380.816 493.295C380.962 493.242 381.098 493.152 381.216 493.032C381.334 492.912 381.433 492.764 381.506 492.595C381.579 492.426 381.626 492.241 381.643 492.049C381.659 491.858 381.646 491.664 381.604 491.479C381.562 491.294 381.492 491.121 381.397 490.97C381.303 490.82 381.186 490.695 381.053 490.602C380.92 490.509 380.775 490.45 380.624 490.429C380.474 490.408 380.321 490.425 380.176 490.479Z" fill="white"/>
<path d="M412.13 495.709C409.912 496.526 407.553 496.487 405.352 495.598C403.151 494.708 401.207 493.008 399.765 490.712C398.323 488.416 397.448 485.627 397.252 482.699C397.055 479.77 397.545 476.833 398.66 474.259C399.775 471.685 401.464 469.589 403.515 468.237C405.565 466.885 407.885 466.338 410.18 466.664C412.475 466.989 414.642 468.174 416.408 470.068C418.174 471.962 419.46 474.48 420.101 477.303C420.962 481.089 420.605 485.156 419.111 488.607C417.616 492.059 415.105 494.614 412.13 495.709Z" fill="#E6E6E6"/>
<path d="M415.041 478.432L410.519 473.695C410.419 473.591 410.304 473.513 410.181 473.465C410.058 473.417 409.928 473.401 409.8 473.417C409.672 473.432 409.547 473.48 409.433 473.557C409.32 473.635 409.219 473.74 409.137 473.866C409.055 473.993 408.994 474.139 408.956 474.296C408.918 474.453 408.905 474.618 408.918 474.781C408.93 474.944 408.968 475.103 409.029 475.248C409.089 475.393 409.172 475.521 409.271 475.625L412.196 478.688L409.672 479.618L407.459 480.432L404.14 481.655C403.846 481.763 403.599 482.015 403.451 482.355C403.304 482.696 403.268 483.097 403.353 483.47C403.438 483.844 403.636 484.159 403.904 484.347C404.171 484.534 404.486 484.579 404.78 484.471L408.099 483.249L410.312 482.434L412.937 481.467L411.691 486.27C411.61 486.585 411.63 486.927 411.747 487.222C411.864 487.518 412.069 487.742 412.316 487.846C412.563 487.95 412.832 487.925 413.064 487.776C413.296 487.628 413.473 487.368 413.555 487.054L415.392 479.976C415.442 479.702 415.436 479.416 415.374 479.146C415.313 478.875 415.198 478.63 415.041 478.432V478.432Z" fill="white"/>
</g>
<defs>
<linearGradient id="paint0_linear_248_531" x1="251.384" y1="376.424" x2="251.384" y2="711.44" gradientUnits="userSpaceOnUse">
<stop stop-color="#FFBFB5"/>
<stop offset="1" stop-color="#FF735C"/>
</linearGradient>
<clipPath id="clip0_248_531">
<rect width="423" height="551" fill="white" transform="translate(55 67)"/>
</clipPath>
</defs>
</svg>
