<svg width="581" height="652" viewBox="0 0 581 652" fill="none" xmlns="http://www.w3.org/2000/svg">
<path d="M5.92794 92.9219C3.21731 65.1717 23.7281 40.5659 51.5129 38.2359L459.004 4.06457C485.986 1.80186 509.867 21.4292 512.873 48.3391L573.298 589.284C576.876 621.32 549.652 648.321 517.647 644.479L94.2688 593.656C70.9669 590.858 52.7466 572.231 50.465 548.873L5.92794 92.9219Z" fill="url(#paint0_linear_239_22)"/>
<g opacity="0.03">
<circle cx="55.644" cy="86.2739" r="5.19788" transform="rotate(-16.6337 55.644 86.2739)" fill="black"/>
<circle cx="77.6511" cy="79.6992" r="5.19788" transform="rotate(-16.6337 77.6511 79.6992)" fill="black"/>
<ellipse cx="100.073" cy="73.0005" rx="5.63103" ry="5.19788" transform="rotate(-16.6337 100.073 73.0005)" fill="black"/>
<circle cx="122.495" cy="66.3019" r="5.19788" transform="rotate(-16.6337 122.495 66.3019)" fill="black"/>
<circle cx="144.502" cy="59.7272" r="5.19788" transform="rotate(-16.6337 144.502 59.7272)" fill="black"/>
<circle cx="61.942" cy="107.355" r="5.19788" transform="rotate(-16.6337 61.942 107.355)" fill="black"/>
<circle cx="83.9491" cy="100.78" r="5.19788" transform="rotate(-16.6337 83.9491 100.78)" fill="black"/>
<ellipse cx="106.371" cy="94.0816" rx="5.63103" ry="5.19788" transform="rotate(-16.6337 106.371 94.0816)" fill="black"/>
<circle cx="128.793" cy="87.3829" r="5.19788" transform="rotate(-16.6337 128.793 87.3829)" fill="black"/>
<circle cx="150.8" cy="80.8082" r="5.19788" transform="rotate(-16.6337 150.8 80.8082)" fill="black"/>
<circle cx="68.24" cy="128.436" r="5.19788" transform="rotate(-16.6337 68.24 128.436)" fill="black"/>
<circle cx="90.247" cy="121.861" r="5.19788" transform="rotate(-16.6337 90.247 121.861)" fill="black"/>
<ellipse cx="112.669" cy="115.163" rx="5.63103" ry="5.19788" transform="rotate(-16.6337 112.669 115.163)" fill="black"/>
<circle cx="135.091" cy="108.464" r="5.19788" transform="rotate(-16.6337 135.091 108.464)" fill="black"/>
<circle cx="157.098" cy="101.889" r="5.19788" transform="rotate(-16.6337 157.098 101.889)" fill="black"/>
<circle cx="74.538" cy="149.517" r="5.19788" transform="rotate(-16.6337 74.538 149.517)" fill="black"/>
<circle cx="96.5451" cy="142.942" r="5.19788" transform="rotate(-16.6337 96.5451 142.942)" fill="black"/>
<ellipse cx="118.967" cy="136.244" rx="5.63103" ry="5.19788" transform="rotate(-16.6337 118.967 136.244)" fill="black"/>
<circle cx="141.389" cy="129.545" r="5.19788" transform="rotate(-16.6337 141.389 129.545)" fill="black"/>
<circle cx="163.396" cy="122.97" r="5.19788" transform="rotate(-16.6337 163.396 122.97)" fill="black"/>
<circle cx="80.836" cy="170.598" r="5.19788" transform="rotate(-16.6337 80.836 170.598)" fill="black"/>
<circle cx="33.6369" cy="92.8485" r="5.19788" transform="rotate(-16.6337 33.6369 92.8485)" fill="black"/>
<circle cx="49.346" cy="65.1929" r="5.19788" transform="rotate(-16.6337 49.346 65.1929)" fill="black"/>
<circle cx="71.353" cy="58.6182" r="5.19788" transform="rotate(-16.6337 71.353 58.6182)" fill="black"/>
<ellipse cx="93.7752" cy="51.9195" rx="5.63103" ry="5.19788" transform="rotate(-16.6337 93.7752 51.9195)" fill="black"/>
<circle cx="116.197" cy="45.2209" r="5.19788" transform="rotate(-16.6337 116.197 45.2209)" fill="black"/>
<circle cx="138.204" cy="38.6462" r="5.19788" transform="rotate(-16.6337 138.204 38.6462)" fill="black"/>
<circle cx="27.3389" cy="71.7675" r="5.19788" transform="rotate(-16.6337 27.3389 71.7675)" fill="black"/>
<circle cx="39.9349" cy="113.93" r="5.19788" transform="rotate(-16.6337 39.9349 113.93)" fill="black"/>
<circle cx="46.2329" cy="135.011" r="5.19788" transform="rotate(-16.6337 46.2329 135.011)" fill="black"/>
<circle cx="52.531" cy="156.092" r="5.19788" transform="rotate(-16.6337 52.531 156.092)" fill="black"/>
<circle cx="58.829" cy="177.173" r="5.19788" transform="rotate(-16.6337 58.829 177.173)" fill="black"/>
<circle cx="102.843" cy="164.023" r="5.19788" transform="rotate(-16.6337 102.843 164.023)" fill="black"/>
<ellipse cx="125.265" cy="157.325" rx="5.63103" ry="5.19788" transform="rotate(-16.6337 125.265 157.325)" fill="black"/>
<circle cx="147.687" cy="150.626" r="5.19788" transform="rotate(-16.6337 147.687 150.626)" fill="black"/>
<circle cx="169.694" cy="144.051" r="5.19788" transform="rotate(-16.6337 169.694 144.051)" fill="black"/>
</g>
<g filter="url(#filter0_d_239_22)">
<rect x="33.9408" y="27.2613" width="22.4894" height="22.4894" rx="5" transform="rotate(45 33.9408 27.2613)" fill="#3E71F5"/>
</g>
<g filter="url(#filter1_d_239_22)">
<rect x="60.2138" y="480.481" width="29.5331" height="29.5331" rx="5" transform="rotate(90 60.2138 480.481)" fill="#FFE03F"/>
</g>
<g filter="url(#filter2_d_239_22)">
<path d="M466.903 84.0931C468.47 86.2584 466.636 89.2372 463.997 88.814L417.219 81.3125C414.58 80.8893 413.77 77.4867 415.935 75.9199L443.075 56.2813C444.417 55.31 446.293 55.6108 447.264 56.9531L466.903 84.0931Z" fill="#FE5E44"/>
</g>
<g clip-path="url(#clip0_239_22)">
<path d="M415.375 182.75C420.895 182.75 426.189 184.936 430.092 188.828C433.995 192.719 436.188 197.997 436.188 203.5V452.5C436.188 458.003 433.995 463.281 430.092 467.172C426.189 471.064 420.895 473.25 415.375 473.25H165.625C160.105 473.25 154.811 471.064 150.908 467.172C147.005 463.281 144.812 458.003 144.812 452.5V203.5C144.812 197.997 147.005 192.719 150.908 188.828C154.811 184.936 160.105 182.75 165.625 182.75H415.375ZM165.625 162C154.585 162 143.998 166.372 136.192 174.155C128.385 181.938 124 192.494 124 203.5L124 452.5C124 463.506 128.385 474.062 136.192 481.845C143.998 489.628 154.585 494 165.625 494H415.375C426.415 494 437.002 489.628 444.808 481.845C452.615 474.062 457 463.506 457 452.5V203.5C457 192.494 452.615 181.938 444.808 174.155C437.002 166.372 426.415 162 415.375 162H165.625Z" fill="#FE5E44" fill-opacity="0.3"/>
<path d="M266.649 258.404C267.618 259.368 268.387 260.513 268.911 261.774C269.436 263.034 269.706 264.385 269.706 265.75C269.706 267.115 269.436 268.466 268.911 269.726C268.387 270.987 267.618 272.132 266.649 273.095L211.558 328L266.649 382.904C268.603 384.853 269.701 387.495 269.701 390.25C269.701 393.005 268.603 395.647 266.649 397.595C264.695 399.544 262.045 400.638 259.281 400.638C256.518 400.638 253.868 399.544 251.914 397.595L189.476 335.345C188.507 334.382 187.738 333.237 187.214 331.976C186.689 330.716 186.419 329.365 186.419 328C186.419 326.635 186.689 325.284 187.214 324.024C187.738 322.763 188.507 321.618 189.476 320.654L251.914 258.404C252.88 257.438 254.029 256.672 255.293 256.149C256.557 255.626 257.912 255.356 259.281 255.356C260.65 255.356 262.005 255.626 263.27 256.149C264.534 256.672 265.682 257.438 266.649 258.404ZM314.351 258.404C313.382 259.368 312.613 260.513 312.089 261.774C311.564 263.034 311.294 264.385 311.294 265.75C311.294 267.115 311.564 268.466 312.089 269.726C312.613 270.987 313.382 272.132 314.351 273.095L369.442 328L314.351 382.904C312.397 384.853 311.299 387.495 311.299 390.25C311.299 393.005 312.397 395.647 314.351 397.595C316.305 399.544 318.955 400.638 321.719 400.638C324.482 400.638 327.132 399.544 329.086 397.595L391.524 335.345C392.493 334.382 393.262 333.237 393.786 331.976C394.311 330.716 394.581 329.365 394.581 328C394.581 326.635 394.311 325.284 393.786 324.024C393.262 322.763 392.493 321.618 391.524 320.654L329.086 258.404C328.12 257.438 326.971 256.672 325.707 256.149C324.443 255.626 323.087 255.356 321.719 255.356C320.35 255.356 318.995 255.626 317.73 256.149C316.466 256.672 315.318 257.438 314.351 258.404Z" fill="#FE5E44" fill-opacity="0.3"/>
</g>
<defs>
<filter id="filter0_d_239_22" x="0.109406" y="19.3324" width="67.6627" height="67.6627" filterUnits="userSpaceOnUse" color-interpolation-filters="sRGB">
<feFlood flood-opacity="0" result="BackgroundImageFix"/>
<feColorMatrix in="SourceAlpha" type="matrix" values="0 0 0 0 0 0 0 0 0 0 0 0 0 0 0 0 0 0 127 0" result="hardAlpha"/>
<feOffset dy="10"/>
<feGaussianBlur stdDeviation="10"/>
<feColorMatrix type="matrix" values="0 0 0 0 0 0 0 0 0 0 0 0 0 0 0 0 0 0 0.1 0"/>
<feBlend mode="normal" in2="BackgroundImageFix" result="effect1_dropShadow_239_22"/>
<feBlend mode="normal" in="SourceGraphic" in2="effect1_dropShadow_239_22" result="shape"/>
</filter>
<filter id="filter1_d_239_22" x="10.6807" y="470.481" width="69.5331" height="69.5331" filterUnits="userSpaceOnUse" color-interpolation-filters="sRGB">
<feFlood flood-opacity="0" result="BackgroundImageFix"/>
<feColorMatrix in="SourceAlpha" type="matrix" values="0 0 0 0 0 0 0 0 0 0 0 0 0 0 0 0 0 0 127 0" result="hardAlpha"/>
<feOffset dy="10"/>
<feGaussianBlur stdDeviation="10"/>
<feColorMatrix type="matrix" values="0 0 0 0 0 0 0 0 0 0 0 0 0 0 0 0 0 0 0.1 0"/>
<feBlend mode="normal" in2="BackgroundImageFix" result="effect1_dropShadow_239_22"/>
<feBlend mode="normal" in="SourceGraphic" in2="effect1_dropShadow_239_22" result="shape"/>
</filter>
<filter id="filter2_d_239_22" x="394.691" y="45.7115" width="92.7899" height="73.143" filterUnits="userSpaceOnUse" color-interpolation-filters="sRGB">
<feFlood flood-opacity="0" result="BackgroundImageFix"/>
<feColorMatrix in="SourceAlpha" type="matrix" values="0 0 0 0 0 0 0 0 0 0 0 0 0 0 0 0 0 0 127 0" result="hardAlpha"/>
<feOffset dy="10"/>
<feGaussianBlur stdDeviation="10"/>
<feColorMatrix type="matrix" values="0 0 0 0 0 0 0 0 0 0 0 0 0 0 0 0 0 0 0.15 0"/>
<feBlend mode="normal" in2="BackgroundImageFix" result="effect1_dropShadow_239_22"/>
<feBlend mode="normal" in="SourceGraphic" in2="effect1_dropShadow_239_22" result="shape"/>
</filter>
<linearGradient id="paint0_linear_239_22" x1="290.652" y1="0" x2="290.652" y2="652" gradientUnits="userSpaceOnUse">
<stop stop-color="#FFBFB5"/>
<stop offset="1" stop-color="#FF735C"/>
</linearGradient>
<clipPath id="clip0_239_22">
<rect x="124" y="162" width="333" height="332" fill="white"/>
</clipPath>
</defs>
</svg>
